<svg width="23" height="22" viewBox="0 0 23 22" fill="none" xmlns="http://www.w3.org/2000/svg">
<g id="icon / show password">
<path id="Combined Shape" fill-rule="evenodd" clip-rule="evenodd" d="M17.9328 3.3L15.2328 6C14.1328 5.4 12.9328 5 11.6328 5C8.03281 5 5.23281 8.1 4.03281 9.9C3.53281 10.6 3.53281 11.5 4.03281 12.1C4.53281 12.9 5.43281 13.9 6.43281 14.8L3.93281 17.3C3.53281 17.7 3.53281 18.3 3.93281 18.7C4.13281 18.9 4.33281 19 4.63281 19C4.93281 19 5.13281 18.9 5.33281 18.7L19.3328 4.7C19.7328 4.3 19.7328 3.7 19.3328 3.3C18.9328 2.9 18.3328 2.9 17.9328 3.3ZM10.0326 16.7998C10.5326 16.8998 11.1326 16.9998 11.6326 16.9998C15.2326 16.9998 18.0336 13.8998 19.2326 12.0998C19.7326 11.3998 19.7326 10.4998 19.2326 9.7998C19.1206 9.63098 18.9447 9.43048 18.7409 9.19832L18.7409 9.19831C18.5826 9.01793 18.4075 8.81842 18.2326 8.5998L10.0326 16.7998ZM8.63281 11C8.63281 11.5 8.73281 11.9 8.93281 12.3L12.9328 8.3C12.5328 8.1 12.1328 8 11.6328 8C9.93281 8 8.63281 9.3 8.63281 11Z" fill="#7D94A5"/>
<mask id="mask0_10_690" style="mask-type:alpha" maskUnits="userSpaceOnUse" x="3" y="3" width="17" height="16">
<path id="Combined Shape_2" fill-rule="evenodd" clip-rule="evenodd" d="M17.9328 3.3L15.2328 6C14.1328 5.4 12.9328 5 11.6328 5C8.03281 5 5.23281 8.1 4.03281 9.9C3.53281 10.6 3.53281 11.5 4.03281 12.1C4.53281 12.9 5.43281 13.9 6.43281 14.8L3.93281 17.3C3.53281 17.7 3.53281 18.3 3.93281 18.7C4.13281 18.9 4.33281 19 4.63281 19C4.93281 19 5.13281 18.9 5.33281 18.7L19.3328 4.7C19.7328 4.3 19.7328 3.7 19.3328 3.3C18.9328 2.9 18.3328 2.9 17.9328 3.3ZM10.0326 16.7998C10.5326 16.8998 11.1326 16.9998 11.6326 16.9998C15.2326 16.9998 18.0336 13.8998 19.2326 12.0998C19.7326 11.3998 19.7326 10.4998 19.2326 9.7998C19.1206 9.63098 18.9447 9.43048 18.7409 9.19832L18.7409 9.19831C18.5826 9.01793 18.4075 8.81842 18.2326 8.5998L10.0326 16.7998ZM8.63281 11C8.63281 11.5 8.73281 11.9 8.93281 12.3L12.9328 8.3C12.5328 8.1 12.1328 8 11.6328 8C9.93281 8 8.63281 9.3 8.63281 11Z" fill="white"/>
</mask>
<g mask="url(#mask0_10_690)">
</g>
</g>
</svg>
